# xmcd
#
# Track frame offsets: 
#        150
#        11950
#        22300
#        33707
#        45055
#        54832
#        65902
#        79720
#        95347
#        107445
#        119825
#        131812
#        142767
#        155010
#        165912
#        177900
#        188677
#        203077
#        213710
#        227550
#        242290
#        256525
#        270465
#        283110
#
# Disc length: 3947 seconds
#
# Revision: 2
# Processed by: cddbd v1.5.2PL0 Copyright (c) Steve Scherf et al.
# Submitted via: ExactAudioCopyFreeDBPlugin 1.0
#
DISCID=480f6918
DTITLE=T-Bone Walker - The Complete Recordings of T-Bone Walker, 1940-
DTITLE=1954 (Mosaic box set]
DYEAR=1990
DGENRE=Blues
TTITLE0=Evil Hearted Woman (alternate take)
TTITLE1=I Walked Away
TTITLE2=No Reason (alternate take)
TTITLE3=No Reason
TTITLE4=Look Me in the Eye (LP album take)
TTITLE5=Look Me in the Eye (78 single take)
TTITLE6=Too Lazy (78 single take)
TTITLE7=Too Lazy (LP album take)
TTITLE8=Alimony Blues
TTITLE9=Life is Too Short
TTITLE10=You Don't Understand
TTITLE11=Welcome Blues
TTITLE12=I Get So Weary
TTITLE13=You Just Wanted to Use Me
TTITLE14=Tell Me What's the Reason
TTITLE15=I'm About to Lose My Mind
TTITLE16=Cold, Cold Feeling
TTITLE17=News for My Baby
TTITLE18=Get These Blues Off Me
TTITLE19=I Got the Blues Again
TTITLE20=Through with Women
TTITLE21=Street Walking Woman
TTITLE22=Blues is a Woman
TTITLE23=I Got the Blues
EXTD=#2319 of 7500 8-D
EXTT0=
EXTT1=
EXTT2=
EXTT3=
EXTT4=
EXTT5=
EXTT6=
EXTT7=
EXTT8=
EXTT9=
EXTT10=
EXTT11=
EXTT12=
EXTT13=
EXTT14=
EXTT15=
EXTT16=
EXTT17=
EXTT18=
EXTT19=
EXTT20=
EXTT21=
EXTT22=
EXTT23=
PLAYORDER=
